# xmcd
#
# Track frame offsets:
#	150
#	12102
#	25499
#	44159
#	54682
#	70422
#	90265
#	101155
#	115772
#	133808
#	144495
#	155782
#	178196
#	192112
#	217994
#	229830
#	243056
#	263363
#	280135
#	295753
#
# Disc length: 4356 seconds
#
# Revision: 1
# Processed by: cddbd v1.5.2PL0 Copyright (c) Steve Scherf et al.
# Submitted via: EZCDAudioConverter 2.1.7.1
#
DISCID=23110214
DTITLE=V/A - Milk Of The Tree 2/3
DYEAR=2017
DGENRE=
TTITLE0=Stone Poneys - Different Drum
TTITLE1=Eclection - Please (MK. II)
TTITLE2=Jade - Five Of Us
TTITLE3=Simon Sisters - Who Has Seen The Wind?
TTITLE4=Judee Sill - Jesus Was A Cross Maker
TTITLE5=Woods Band - January's Snows
TTITLE6=Trader Horne - In My Loneliness
TTITLE7=Janis Ian - Society's Child (Baby I've Been Thinking)
TTITLE8=Lily and Maria - I Was
TTITLE9=Mellow Candle - Feeling High
TTITLE10=Tomorrow Come Someday - Tomorrow Come Someday
TTITLE11=Julie Covington - My Silks And Fine Array
TTITLE12=Norma Waterson - Red Wine And Promises
TTITLE13=Mr. Fox - Mr. Fox
TTITLE14=Buffy Sainte-Marie - The Dream Tree
TTITLE15=The Academy featuring Polly Perkins - Munching The Candy
TTITLE16=Sandy Denny - Late November
TTITLE17=Hendrickson Road House - Tomorrow Your Sorrow
TTITLE18=Chuck and Mary Perrin - Mornings
TTITLE19=Lesley Duncan - Mr. Rubin
EXTD=
EXTT0=
EXTT1=
EXTT2=
EXTT3=
EXTT4=
EXTT5=
EXTT6=
EXTT7=
EXTT8=
EXTT9=
EXTT10=
EXTT11=
EXTT12=
EXTT13=
EXTT14=
EXTT15=
EXTT16=
EXTT17=
EXTT18=
EXTT19=
PLAYORDER=
